# File created by Blade
# Date/Time:  Tue Apr 07 21:25:57 2015
# Frame Rate: 120.000 fps
#------------------------------------------------------
:FULLY-SPECIFIED
:DEGREES
640
root -4.845117 33.918622 4.491929 10.927010 -58.962688 6.267528
Spine -5.662382 -2.656403 -5.763125
Head 24.646375 -24.533387 5.235643
LeftShoulder -20.555146 46.527776 15.569440
LeftArm 53.012191 -29.250623 -84.731873
LeftForeArm -2.724707 0.000000 -2.938201
LeftHand 14.454902 -0.000000 18.164884
LeftHandThumb1 -26.253704 0.000000 33.147579
RightShoulder -7.315720 9.139074 -29.772371
RightArm 23.019482 18.296564 58.774200
RightForeArm -9.294419 0.000000 19.797367
RightHand 14.314999 -0.000000 -13.687844
RightHandThumb1 -24.326973 -0.000000 -32.862282
LeftUpLeg -38.705255 -8.743865 -2.033740
LeftLeg -3.134428 -0.000000 0.000000
LeftFoot 25.953757 18.992812 -17.844642
LeftToeBase 0.249003 -0.000000 -0.000000
RightUpLeg -7.290278 -4.259492 6.016462
RightLeg -1.437674 -0.000000 0.000000
RightFoot 5.698103 -16.202885 1.489017
RightToeBase -16.840293 -0.000000 0.000000
641
root -5.027796 33.829070 4.530265 10.919255 -59.520917 5.625162
Spine -5.309093 -2.188778 -5.627099
Head 24.426008 -24.390675 5.327844
LeftShoulder -20.679264 46.572820 15.807422
LeftArm 53.095818 -30.554564 -84.195251
LeftForeArm -2.026988 -0.000000 -2.099124
LeftHand 14.621896 -0.000000 18.718654
LeftHandThumb1 -26.253704 0.000000 33.147579
RightShoulder -7.423950 9.145411 -29.812542
RightArm 23.625014 17.790831 58.487385
RightForeArm -9.718742 -0.000000 19.933533
RightHand 14.107292 -0.000000 -13.473227
RightHandThumb1 -24.326973 -0.000000 -32.862282
LeftUpLeg -38.608969 -8.622629 -2.398841
LeftLeg -2.664819 -0.000000 0.000000
LeftFoot 26.624300 18.207005 -17.520634
LeftToeBase -0.503542 -0.000000 0.000000
RightUpLeg -6.728490 -3.864473 6.412045
RightLeg -0.770049 -0.000000 0.000000
RightFoot 4.895461 -16.414680 1.335372
RightToeBase -17.217572 -0.000000 0.000000
642
root -5.204622 33.732809 4.568718 10.802455 -60.109936 5.162610
Spine -5.010001 -1.768740 -5.594943
Head 24.216774 -24.271403 5.363967
LeftShoulder -20.815637 46.714807 16.008661
LeftArm 53.196835 -31.788520 -83.500245
LeftForeArm -1.970875 -0.000000 -1.407235
LeftHand 15.362094 0.000000 19.291978
LeftHandThumb1 -26.253704 0.000000 33.147579
RightShoulder -7.438042 9.045277 -29.855521
RightArm 24.189842 17.219350 58.112660
RightForeArm -9.917288 -0.000000 20.173845
RightHand 13.779131 -0.000000 -13.433493
RightHandThumb1 -24.326973 -0.000000 -32.862282
LeftUpLeg -38.563670 -8.590399 -2.710481
LeftLeg -2.066897 -0.000000 0.000000
LeftFoot 27.357675 17.713984 -16.978215
LeftToeBase -1.002839 -0.000000 0.000000
RightUpLeg -6.337424 -3.692640 6.761512
RightLeg 0.166003 -0.000000 -0.000000
RightFoot 3.836088 -16.590970 0.960098
RightToeBase -17.654796 -0.000000 0.000000
643
root -5.382178 33.631566 4.602176 10.636444 -60.634446 4.755134
Spine -4.694781 -1.542058 -5.574922
Head 24.043868 -24.030362 5.357450
LeftShoulder -21.103933 46.988471 16.021635
LeftArm 53.307150 -32.938775 -82.661175
LeftForeArm -1.616964 -0.000000 -0.565295
LeftHand 14.976979 -0.000000 20.483035
LeftHandThumb1 -26.253704 0.000000 33.147579
RightShoulder -7.403893 8.914775 -29.903955
RightArm 24.878219 16.646838 57.755673
RightForeArm -10.078051 -0.000000 20.322286
RightHand 13.669684 -0.000000 -13.469048
RightHandThumb1 -24.326973 -0.000000 -32.862282
LeftUpLeg -38.500650 -8.636431 -2.975169
LeftLeg -1.405137 -0.000000 0.000000
LeftFoot 28.218485 17.591124 -16.293753
LeftToeBase -0.982846 -0.000000 0.000000
RightUpLeg -6.017703 -3.537586 7.092116
RightLeg 1.299667 -0.000000 -0.000000
RightFoot 2.566569 -16.771431 0.629038
RightToeBase -17.643393 -0.000000 0.000000
644
root -5.567709 33.521491 4.636279 10.410204 -61.113384 4.415072
Spine -4.413702 -1.432548 -5.581236
Head 23.960498 -23.691360 5.305537
LeftShoulder -21.810830 47.603510 15.553058
LeftArm 54.012814 -34.083823 -81.831260
LeftForeArm -1.902808 -0.000000 -0.079165
LeftHand 15.263614 -0.000000 21.348327
LeftHandThumb1 -26.253704 0.000000 33.147579
RightShoulder -7.248839 8.708328 -29.995331
RightArm 25.521667 16.196949 57.465414
RightForeArm -10.218995 -0.000000 20.494244
RightHand 13.785054 -0.000000 -13.587556
RightHandThumb1 -24.326973 -0.000000 -32.862282
LeftUpLeg -38.370043 -8.674421 -3.226129
LeftLeg -0.700315 -0.000000 0.000000
LeftFoot 28.961864 17.705279 -15.808404
LeftToeBase -0.955457 -0.000000 0.000000
RightUpLeg -5.579755 -3.122629 7.380530
RightLeg 2.249124 -0.000000 -0.000000
RightFoot 1.274754 -17.184475 0.855020
RightToeBase -17.696616 -0.000000 0.000000
645
root -5.765355 33.404395 4.675141 10.101453 -61.558209 4.170251
Spine -4.170108 -1.374082 -5.633338
Head 23.959503 -23.317465 5.182393
LeftShoulder -22.264838 48.010291 15.311412
LeftArm 54.257408 -35.245298 -80.842070
LeftForeArm -1.995183 0.000000 0.547709
LeftHand 15.444133 -0.000000 21.719803
LeftHandThumb1 -26.253704 0.000000 33.147579
RightShoulder -7.059278 8.443244 -30.086062
RightArm 26.138193 15.777910 57.141212
RightForeArm -10.354043 -0.000000 20.711059
RightHand 13.647860 -0.000000 -13.598847
RightHandThumb1 -24.326973 -0.000000 -32.862282
LeftUpLeg -38.131447 -8.720299 -3.500957
LeftLeg -0.038119 -0.000000 0.000000
LeftFoot 29.430688 18.162900 -15.623358
LeftToeBase -0.978125 -0.000000 0.000000
RightUpLeg -5.170769 -2.812779 7.632747
RightLeg 3.289415 -0.000000 -0.000000
RightFoot 0.034182 -17.709178 0.445422
RightToeBase -17.443444 -0.000000 0.000000
646
root -5.971071 33.282101 4.717775 9.794787 -61.984972 3.972208
Spine -3.989174 -1.325763 -5.708644
Head 23.966281 -22.892007 5.085615
LeftShoulder -22.557294 48.271261 15.205286
LeftArm 54.312954 -36.572113 -79.864723
LeftForeArm -2.339775 -0.000000 1.107636
LeftHand 15.875588 -0.000000 21.811914
LeftHandThumb1 -26.253704 0.000000 33.147579
RightShoulder -6.931644 8.093415 -30.202003
RightArm 26.772273 15.303655 56.799955
RightForeArm -10.427668 -0.000000 20.945148
RightHand 13.506275 0.000000 -13.869252
RightHandThumb1 -24.326973 -0.000000 -32.862282
LeftUpLeg -37.857371 -8.751407 -3.732306
LeftLeg 0.584805 -0.000000 -0.000000
LeftFoot 29.839125 18.446007 -15.180338
LeftToeBase -1.198332 -0.000000 0.000000
RightUpLeg -4.800389 -2.632957 7.874888
RightLeg 4.361702 -0.000000 -0.000000
RightFoot -1.257657 -18.096141 0.305217
RightToeBase -17.180531 -0.000000 0.000000
647
root -6.183299 33.159929 4.763528 9.579930 -62.471710 3.717453
Spine -3.880820 -1.232252 -5.759726
Head 23.999530 -22.366484 4.974681
LeftShoulder -23.020129 48.584167 14.956384
LeftArm 54.501376 -37.709082 -78.818436
LeftForeArm -2.693327 -0.000000 1.610195
LeftHand 15.504407 -0.000000 22.536196
LeftHandThumb1 -26.253704 0.000000 33.147579
RightShoulder -6.844248 7.760601 -30.335735
RightArm 27.386108 14.844941 56.470150
RightForeArm -10.547584 0.000000 21.147720
RightHand 13.532306 -0.000000 -14.027280
RightHandThumb1 -24.326973 -0.000000 -32.862282
LeftUpLeg -37.549348 -8.735074 -3.867196
LeftLeg 1.160255 -0.000000 -0.000000
LeftFoot 29.990085 18.502244 -14.277535
LeftToeBase -1.158808 -0.000000 0.000000
RightUpLeg -4.476672 -2.659644 8.148410
RightLeg 5.482134 -0.000000 -0.000000
RightFoot -2.547348 -18.253025 0.169648
RightToeBase -17.452000 -0.000000 0.000000
648
root -6.391678 33.041409 4.813193 9.445369 -63.038394 3.508321
Spine -3.948837 -1.060163 -5.831769
Head 24.121726 -21.829954 4.801923
LeftShoulder -23.477987 48.883210 14.732841
LeftArm 54.827355 -38.924567 -77.996023
LeftForeArm -3.345737 -0.000000 2.005578
LeftHand 15.710907 -0.000000 22.965119
LeftHandThumb1 -26.253704 0.000000 33.147579
RightShoulder -6.739109 7.475800 -30.485240
RightArm 27.861279 14.367762 56.082036
RightForeArm -10.685655 -0.000000 21.369107
RightHand 13.425162 -0.000000 -14.109604
RightHandThumb1 -24.326973 -0.000000 -32.862282
LeftUpLeg -37.302332 -8.701341 -3.949412
LeftLeg 1.732228 -0.000000 -0.000000
LeftFoot 30.073374 18.856585 -13.312891
LeftToeBase -2.674070 -0.000000 0.000000
RightUpLeg -4.282935 -2.853560 8.370457
RightLeg 6.689221 -0.000000 -0.000000
RightFoot -3.969025 -18.154674 0.145470
RightToeBase -17.664699 -0.000000 0.000000
649
root -6.598872 32.926315 4.864422 9.516457 -63.680570 3.179130
Spine -4.175898 -0.794291 -5.833668
Head 24.330101 -21.245295 4.550426
LeftShoulder -23.927005 49.146366 14.517395
LeftArm 55.219453 -40.162888 -77.376169
LeftForeArm -3.931494 0.000000 2.474122
LeftHand 15.845547 -0.000000 23.307993
LeftHandThumb1 -26.253704 0.000000 33.147579
RightShoulder -6.651167 7.201061 -30.637579
RightArm 28.288243 13.783447 55.563148
RightForeArm -10.728271 0.000000 21.512696
RightHand 13.474570 -0.000000 -14.192870
RightHandThumb1 -24.326973 -0.000000 -32.862282
LeftUpLeg -37.092971 -8.554584 -3.971945
LeftLeg 2.297521 -0.000000 -0.000000
LeftFoot 29.920027 19.156640 -11.721075
LeftToeBase -3.886959 -0.000000 0.000000
RightUpLeg -4.102804 -2.971443 8.609094
RightLeg 7.772279 -0.000000 -0.000000
RightFoot -5.338196 -17.911942 0.308799
RightToeBase -17.625369 -0.000000 0.000000
650
root -6.807089 32.814844 4.909060 9.932296 -64.368259 2.643012
Spine -4.590893 -0.514664 -5.736143
Head 24.540137 -20.618033 4.261557
LeftShoulder -24.341012 49.262245 14.376927
LeftArm 55.609731 -41.480644 -77.063287
LeftForeArm -4.279262 0.000000 2.981271
LeftHand 15.998396 0.000000 23.735768
LeftHandThumb1 -26.253704 0.000000 33.147579
RightShoulder -6.634144 6.980453 -30.752878
RightArm 28.827225 13.272940 55.125376
RightForeArm -10.989329 -0.000000 21.575920
RightHand 13.364932 -0.000000 -14.155683
RightHandThumb1 -24.326973 -0.000000 -32.862282
LeftUpLeg -37.001926 -8.313229 -3.880737
LeftLeg 2.925943 -0.000000 -0.000000
LeftFoot 29.580773 20.009332 -10.676001
LeftToeBase -6.099828 -0.000000 0.000000
RightUpLeg -3.998672 -2.977925 8.908319
RightLeg 8.703834 -0.000000 -0.000000
RightFoot -6.535655 -17.702332 0.367018
RightToeBase -17.422654 -0.000000 0.000000
651
root -7.029978 32.707161 4.961658 10.406986 -65.164184 2.102967
Spine -5.151906 -0.119759 -5.665652
Head 24.886304 -19.921155 3.944903
LeftShoulder -24.668058 49.392667 14.350063
LeftArm 56.161337 -42.892413 -77.215346
LeftForeArm -4.150764 -0.000000 3.657614
LeftHand 16.022352 -0.000000 24.063751
LeftHandThumb1 -26.253704 0.000000 33.147579
RightShoulder -6.570037 6.789792 -30.835468
RightArm 29.242088 12.895332 54.720626
RightForeArm -11.375731 -0.000000 21.632755
RightHand 13.334619 0.000000 -14.162638
RightHandThumb1 -24.326973 -0.000000 -32.862282
LeftUpLeg -36.876054 -7.899121 -3.835210
LeftLeg 3.530747 -0.000000 -0.000000
LeftFoot 29.182789 21.129459 -9.819174
LeftToeBase -6.910911 -0.000000 0.000000
RightUpLeg -3.819515 -2.815904 9.142845
RightLeg 9.436037 -0.000000 -0.000000
RightFoot -7.552622 -17.537186 0.436334
RightToeBase -17.498345 -0.000000 0.000000
